<?xml version="1.0" standalone="no"?>
<!DOCTYPE svg PUBLIC "-//W3C//DTD SVG 20010904//EN"
 "http://www.w3.org/TR/2001/REC-SVG-20010904/DTD/svg10.dtd">
<svg version="1.0" xmlns="http://www.w3.org/2000/svg"
 width="700.000000pt" height="700.000000pt" viewBox="0 0 700.000000 700.000000"
 preserveAspectRatio="xMidYMid meet">
<metadata>
Created by potrace 1.14, written by Peter Selinger 2001-2017
</metadata>
<g transform="translate(0.000000,700.000000) scale(0.100000,-0.100000)"
fill="#000000" stroke="none">
<path d="M1415 6993 c-88 -11 -251 -48 -330 -74 -126 -42 -313 -137 -424 -217
-119 -85 -277 -242 -364 -363 -57 -80 -183 -311 -191 -351 -2 -7 -9 -26 -15
-43 -21 -49 -61 -213 -76 -310 -11 -75 -14 -436 -14 -2125 1 -1146 4 -2066 10
-2105 25 -198 72 -355 160 -530 77 -156 170 -284 295 -409 246 -246 556 -400
914 -454 25 -4 988 -7 2140 -7 l2095 0 107 23 c607 131 1072 569 1228 1160 50
189 49 120 46 2357 -3 2267 1 2098 -56 2299 -97 343 -313 652 -601 859 -201
144 -470 251 -719 286 -61 9 -4139 13 -4205 4z"/>
</g>
</svg>
