<?xml version="1.0" standalone="no"?>
<!DOCTYPE svg PUBLIC "-//W3C//DTD SVG 20010904//EN"
 "http://www.w3.org/TR/2001/REC-SVG-20010904/DTD/svg10.dtd">
<svg version="1.0" xmlns="http://www.w3.org/2000/svg"
 width="700.000000pt" height="700.000000pt" viewBox="0 0 700.000000 700.000000"
 preserveAspectRatio="xMidYMid meet">
<metadata>
Created by potrace 1.14, written by Peter Selinger 2001-2017
</metadata>
<g transform="translate(0.000000,700.000000) scale(0.100000,-0.100000)"
fill="#000000" stroke="none">
<path d="M808 6386 c-69 -30 -115 -112 -105 -186 3 -24 22 -65 48 -102 58 -86
99 -146 460 -668 173 -250 431 -624 574 -830 286 -415 399 -577 416 -601 14
-20 221 -320 312 -452 l67 -97 5 -1348 c6 -1507 1 -1402 78 -1457 l42 -30 320
-5 320 -5 120 -38 c200 -63 329 -103 560 -172 121 -36 226 -68 233 -70 11 -4
13 22 11 128 -1 72 -1 137 0 143 0 6 19 16 40 23 44 13 97 60 113 100 10 25
11 536 4 2210 l-2 524 197 286 c109 157 202 291 206 296 4 6 31 44 58 85 28
41 55 80 60 87 6 6 54 76 108 155 54 78 263 382 464 673 201 292 397 577 437
635 39 58 73 107 76 110 5 4 102 144 232 337 42 62 47 120 15 186 -21 42 -35
57 -72 75 l-45 22 -856 0 c-847 0 -858 0 -900 -21 -53 -25 -44 -11 -426 -634
-27 -44 -79 -129 -117 -190 -195 -315 -224 -362 -239 -388 -10 -16 -40 -64
-68 -108 l-51 -80 -115 188 c-63 103 -139 226 -168 273 -29 47 -87 141 -130
210 -366 597 -430 696 -466 720 l-38 25 -875 2 c-663 1 -883 -2 -903 -11z"/>
</g>
</svg>
